<svg width="1014" height="243" viewBox="0 0 1014 243" fill="none" xmlns="http://www.w3.org/2000/svg">
<path d="M2.34033 121.865C17.8789 121.865 32.4813 128.221 47.8922 128.221C67.9328 128.221 76.0988 124.883 91.4432 111.154C126.783 79.5341 159.173 45.5105 201.733 23.1104C255.331 -5.09912 326.826 -1.73506 384.294 10.9867C440.386 23.4042 483.77 55.8057 512.475 105.386C531.254 137.823 549.554 184.83 538.37 223.092C532.334 243.739 489.391 241.516 473.161 240.041C452.226 238.138 431.489 224.47 428.669 201.905C425.232 174.409 427.734 149.763 444.206 127.162C468.939 93.2252 505.543 71.3144 544.608 57.3626C580.011 44.7187 626.155 40.3153 662.431 51.2419C706.203 64.4263 753.243 85.3936 787.199 116.686C821.199 148.02 853.175 199.536 904.904 198.138C919.935 197.732 934.313 188.819 948.925 185.897C956.821 184.318 960 182.5 964.227 179.07" stroke="white" stroke-width="3" stroke-linecap="round"/>
<path d="M952.737 145.98C966.1 145.98 980.453 154.415 993.199 158.511C995.546 159.266 1018.8 164.028 1010.49 167.721C993.944 175.073 963.078 222.188 973.119 207.126" stroke="white" stroke-width="3" stroke-linecap="round"/>
</svg>
