<svg width="1014" height="243" viewBox="0 0 1014 243" fill="none" xmlns="http://www.w3.org/2000/svg">
<path d="M1012.27 121.865C996.733 121.865 982.131 128.221 966.72 128.221C946.68 128.221 938.513 124.883 923.169 111.154C887.829 79.5341 855.44 45.5105 812.879 23.1104C759.281 -5.09912 687.786 -1.73506 630.319 10.9867C574.226 23.4042 530.842 55.8057 502.138 105.386C483.358 137.823 465.058 184.83 476.243 223.092C482.278 243.739 525.221 241.516 541.451 240.041C562.386 238.138 583.123 224.47 585.944 201.905C589.381 174.409 586.878 149.763 570.407 127.162C545.673 93.2252 509.069 71.3144 470.004 57.3626C434.601 44.7187 388.458 40.3153 352.181 51.2419C308.409 64.4263 261.369 85.3936 227.414 116.686C193.413 148.02 161.438 199.536 109.709 198.138C94.6775 197.732 80.2995 188.819 65.6868 185.897C57.7917 184.318 54.6123 182.5 50.3851 179.07" stroke="white" stroke-width="3" stroke-linecap="round"/>
<path d="M61.8755 145.98C48.5126 145.98 34.1591 154.415 21.4135 158.511C19.0661 159.266 -4.18309 164.028 4.12663 167.721C20.6682 175.073 51.5346 222.188 41.4935 207.126" stroke="white" stroke-width="3" stroke-linecap="round"/>
</svg>
